<svg id="Layer_1" data-name="Layer 1" xmlns="http://www.w3.org/2000/svg" viewBox="0 0 262.38 237.98"><defs><style>.cls-1{fill:#231f20;}</style></defs><title>Untitled-1</title><path class="cls-1" d="M304.06,325.83c-1.5,0-3-.05-4.44-.14l.75-11.2c1.22.09,2.44.13,3.69.13a60.52,60.52,0,0,0,0-121l-6.82,0,0-6.82a60.52,60.52,0,0,0-121,0c0,.56,0,1.12,0,1.67l.13,5.58-4.49,1a60.53,60.53,0,0,0,13.25,119.59v11.21A71.74,71.74,0,0,1,165,185.23a71.74,71.74,0,0,1,143.33-2.74,71.73,71.73,0,0,1-4.29,143.34Z" transform="translate(-113.4 -115.05)"/><rect class="cls-1" x="222.95" y="274.02" width="6.08" height="45.62" rx="1.36" transform="translate(85.82 -190.33) rotate(33.17)"/><rect class="cls-1" x="260.14" y="298.33" width="6.08" height="45.62" rx="1.36" transform="translate(105.18 -206.72) rotate(33.17)"/><rect class="cls-1" x="222.95" y="309.99" width="6.08" height="45.62" rx="1.36" transform="translate(105.5 -184.47) rotate(33.17)"/></svg>